# xmcd CD database file
#
# Track frame offsets:
#	150
#	4079
#	16671
#	23679
#	37267
#	43908
#	72923
#	85793
#	109638
#	126134
#	155148
#	171239
#
# Disc length: 2433 seconds
#
# Revision: 0
# Processed by: cddbd v1.5.1PL0 Copyright (c) Steve Scherf et al.
# Submitted via: CDex 1.50beta9
#
DISCID=95097f0c
DTITLE=Arti e Mestieri - Articollezione
DYEAR=2001
DGENRE=Rock
TTITLE0=Stacco matto
TTITLE1=Glory
TTITLE2=Young Man's Tale
TTITLE3=Morning Rose
TTITLE4=Night Trip
TTITLE5=Necropoli
TTITLE6=Gravita' 9.81
TTITLE7=Da Nord a Sud
TTITLE8=Silently Dancing
TTITLE9=Comin' Here To get You (1, 2, 3)
TTITLE10=Inside
TTITLE11=Young Man's Tale Part 2
EXTD=YEAR: 2001
EXTT0=
EXTT1=
EXTT2=
EXTT3=
EXTT4=
EXTT5=
EXTT6=
EXTT7=
EXTT8=
EXTT9=
EXTT10=
EXTT11=
PLAYORDER=
